<?xml version="1.0"?>
<svg xmlns="http://www.w3.org/2000/svg" xmlns:xlink="http://www.w3.org/1999/xlink" version="1.1" id="Capa_1" x="0px" y="0px" viewBox="0 0 438.007 438.007" style="enable-background:new 0 0 438.007 438.007;" xml:space="preserve" width="512px" height="512px" class=""><g><g>
	<g>
		<path d="M130.003,50.003v59.534c24.193-19.249,54.23-29.668,85.147-29.534h7.707c30.916-0.134,60.953,10.285,85.146,29.534V50.003    H130.003z" data-original="#000000" class="active-path" data-old_color="#000000" fill="#353535"/>
	</g>
</g><g>
	<g>
		<path d="M296.989,0.004c-0.186-0.005-0.373-0.005-0.559,0H141.576c-6.239-0.153-11.42,4.781-11.573,11.02    c-0.005,0.186-0.005,0.373,0,0.559v22.421h178V11.582C308.159,5.344,303.228,0.16,296.989,0.004z" data-original="#000000" class="active-path" data-old_color="#000000" fill="#353535"/>
	</g>
</g><g>
	<g>
		<path d="M308.003,426.424v-22.421h-178v22.421c-0.156,6.239,4.775,11.423,11.014,11.579c0.186,0.005,0.373,0.005,0.559,0H296.43    c6.239,0.153,11.42-4.781,11.573-11.02C308.008,426.797,308.008,426.611,308.003,426.424z" data-original="#000000" class="active-path" data-old_color="#000000" fill="#353535"/>
	</g>
</g><g>
	<g>
		<path d="M222.857,96.003h-7.707c-67.931,0-123,55.069-123,123s55.069,123,123,123h7.707c67.931,0,123-55.069,123-123    S290.788,96.003,222.857,96.003z M269.643,233.003h-56.14c-4.613-0.19-8.31-3.887-8.5-8.5v-78.708    c0.006-4.418,3.593-7.995,8.011-7.989c4.41,0.006,7.983,3.579,7.989,7.989v71.208h48.64c4.418,0,8,3.582,8,8    S274.061,233.003,269.643,233.003z" data-original="#000000" class="active-path" data-old_color="#000000" fill="#353535"/>
	</g>
</g><g>
	<g>
		<path d="M222.857,358.003h-7.707c-30.917,0.133-60.953-10.285-85.147-29.534v59.534h178v-59.534    C283.81,347.719,253.773,358.137,222.857,358.003z" data-original="#000000" class="active-path" data-old_color="#000000" fill="#353535"/>
	</g>
</g></g> </svg>
