<?xml version="1.0"?>
<svg xmlns="http://www.w3.org/2000/svg" xmlns:xlink="http://www.w3.org/1999/xlink" version="1.1" id="Capa_1" x="0px" y="0px" viewBox="0 0 512 512" style="enable-background:new 0 0 512 512;" xml:space="preserve" width="512px" height="512px"><g><g>
	<g>
		<path d="M256,91c-90.981,0-165,74.019-165,165s74.019,165,165,165s165-74.019,165-165S346.981,91,256,91z M256,241    c33.091,0,60,26.909,60,60c0,27.881-19.193,51.163-45,57.87V376c0,8.291-6.709,15-15,15c-8.291,0-15-6.709-15-15v-17.13    c-25.807-6.707-45-29.989-45-57.87c0-8.291,6.709-15,15-15s15,6.709,15,15c0,16.538,13.462,30,30,30c16.538,0,30-13.462,30-30    c0-16.538-13.462-30-30-30c-33.091,0-60-26.909-60-60c0-27.881,19.193-51.163,45-57.87V136c0-8.291,6.709-15,15-15s15,6.709,15,15    v17.13c25.807,6.707,45,29.989,45,57.87c0,8.291-6.709,15-15,15c-8.291,0-15-6.709-15-15c0-16.538-13.462-30-30-30    c-16.538,0-30,13.462-30,30C226,227.538,239.462,241,256,241z" data-original="#000000" class="active-path" data-old_color="#000000" fill="#353535"/>
	</g>
</g><g>
	<g>
		<path d="M256,0C115.39,0,0,115.39,0,256s115.39,256,256,256s256-115.39,256-256S396.61,0,256,0z M256,451    c-107.52,0-195-87.48-195-195S148.48,61,256,61s195,87.48,195,195S363.52,451,256,451z" data-original="#000000" class="active-path" data-old_color="#000000" fill="#353535"/>
	</g>
</g></g> </svg>
